{"title":"The Interpreter (2005) 720p - BRRip [HINDI + English + Tamil]~St","uid":11606944,"size":820398917,"categoryP":"video","categoryS":"movies","magnet":"?xt=urn:btih:985936784e2981dfc409f11fee3c975f2ccd7ac7&amp;dn=The+Interpreter+%282005%29+720p+-+BRRip+%5BHINDI+%2B+English+%2B+Tamil%5D%7ESt&amp;tr=udp%3A%2F%2Ftracker.openbittorrent.com%3A80&amp;tr=udp%3A%2F%2Fopen.demonii.com%3A1337&amp;tr=udp%3A%2F%2Ftracker.coppersurfer.tk%3A6969&amp;tr=udp%3A%2F%2Fexodus.desync.com%3A6969","seeders":5,"leechers":4,"uploader":"StroMSiD","files":4,"time":1417408278,"description":"Format                                   : Matroska\nFormat version                           : Version 4 / Version 2\nFile size                                : 771 MiB\nDuration                                 : 2h 4mn\nOverall bit rate                         : 868 Kbps\nEncoded date                             : UTC 2014-11-27 06:46:59\nWriting application                      : mkvmerge v7.1.0 ('Good Love') 32bit built on Jul 27 2014 12:59:18\nWriting library                          : libebml v1.3.0 + libmatroska v1.4.1\nDURATION                                 : 01:40:23.100000000\nNUMBER_OF_FRAMES                         : 6\nNUMBER_OF_BYTES                          : 288\n_STATISTICS_WRITING_APP                  : mkvmerge v7.1.0 ('Good Love') 32bit built on Jul 27 2014 12:59:18\n_STATISTICS_WRITING_DATE_UTC             : 2014-11-27 06:46:59\n_STATISTICS_TAGS                         : BPS DURATION NUMBER_OF_FRAMES NUMBER_OF_BYTES\n\nVideo\nID                                       : 1\nFormat                                   : AVC\nFormat/Info                              : Advanced Video Codec\nFormat profile                           : &lt;a class=&quot;__cf_email__&quot; href=&quot;/cdn-cgi/l/email-protection&quot; data-cfemail=&quot;1058797778505c243e20&quot;&gt;[email&amp;#160;protected]&lt;/a&gt;&lt;script cf-hash='f9e31' type=&quot;text/javascript&quot;&gt;\n/* &lt;![CDATA[ */!function(){try{var t=&quot;currentScript&quot;in document?document.currentScript:function(){for(var t=document.getElementsByTagName(&quot;script&quot;),e=t.length;e--;)if(t[e].getAttribute(&quot;cf-hash&quot;))return t[e]}();if(t&amp;&amp;t.previousSibling){var e,r,n,i,c=t.previousSibling,a=c.getAttribute(&quot;data-cfemail&quot;);if(a){for(e=&quot;&quot;,r=parseInt(a.substr(0,2),16),n=2;a.length-n;n+=2)i=parseInt(a.substr(n,2),16)^r,e+=String.fromCharCode(i);e=document.createTextNode(e),c.parentNode.replaceChild(e,c)}}}catch(u){}}();/* ]]&gt; */&lt;/script&gt;\nFormat settings, CABAC                   : Yes\nFormat settings, ReFrames                : 8 frames\nCodec ID                                 : V_MPEG4/ISO/AVC\nDuration                                 : 2h 4mn\nWidth                                    : 1 280 pixels\nHeight                                   : 544 pixels\nDisplay aspect ratio                     : 2.35:1\nFrame rate mode                          : Constant\nFrame rate                               : 23.976 fps\nColor space                              : YUV\nChroma subsampling                       : 4:2:0\nBit depth                                : 8 bits\nScan type                                : Progressive\nTitle                                    : StroMSiD\nLanguage                                 : English\nDefault                                  : Yes\nForced                                   : Yes\nDURATION                                 : 02:04:11.248000000\nNUMBER_OF_FRAMES                         : 178651\nNUMBER_OF_BYTES                          : 593213201\n_STATISTICS_WRITING_APP                  : mkvmerge v7.1.0 ('Good Love') 32bit built on Jul 27 2014 12:59:18\n_STATISTICS_WRITING_DATE_UTC             : 2014-11-27 06:46:59\n_STATISTICS_TAGS                         : BPS DURATION NUMBER_OF_FRAMES NUMBER_OF_BYTES\n\nAudio #1\nID                                       : 2\nFormat                                   : MPEG Audio\nFormat version                           : Version 1\nFormat profile                           : Layer 3\nCodec ID                                 : A_MPEG/L3\nCodec ID/Hint                            : MP3\nDuration                                 : 2h 4mn\nBit rate mode                            : Constant\nBit rate                                 : 128 Kbps\nChannel(s)                               : 2 channels\nSampling rate                            : 44.1 KHz\nCompression mode                         : Lossy\nDelay relative to video                  : 11ms\nStream size                              : 114 MiB (15%)\nTitle                                    : StroMSiD\nLanguage                                 : Tamil\nDefault                                  : No\nForced                                   : No\n\nAudio #2\nID                                       : 3\nFormat                                   : AC-3\nFormat/Info                              : Audio Coding 3\nMode extension                           : CM (complete main)\nFormat settings, Endianness              : Big\nCodec ID                                 : A_AC3\nDuration                                 : 2h 4mn\nBit rate mode                            : Constant\nBit rate                                 : 64.0 Kbps\nChannel(s)                               : 2 channels\nChannel positions                        : Front: L R\nSampling rate                            : 44.1 KHz\nBit depth                                : 16 bits\nCompression mode                         : Lossy\nStream size                              : 56.9 MiB (7%)\nTitle                                    : StroMSiD\nLanguage                                 : Hindi\nDefault                                  : Yes\nForced                                   : Yes\n\nAudio #3\nID                                       : 4\nFormat                                   : AAC\nFormat/Info                              : Advanced Audio Codec\nFormat profile                           : HE-AAC / LC\nCodec ID                                 : A_AAC\nDuration                                 : 2h 4mn\nChannel(s)                               : 2 channels\nChannel positions                        : Front: L R\nSampling rate                            : 48.0 KHz / 24.0 KHz\nCompression mode                         : Lossy\nTitle                                    : StroMSiD\nLanguage                                 : English\nDefault                                  : No\nForced                                   : No\n\nText\nID                                       : 5\nFormat                                   : ASS\nCodec ID                                 : S_TEXT/ASS\nCodec ID/Info                            : Advanced Sub Station Alpha\nCompression mode                         : Lossless\nDefault                                  : Yes\nForced                                   : No","torrent":{"xt":"urn:btih:985936784e2981dfc409f11fee3c975f2ccd7ac7","amp;dn":"The+Interpreter+%282005%29+720p+-+BRRip+%5BHINDI+%2B+English+%2B+Tamil%5D%7ESt","amp;tr":["udp%3A%2F%2Ftracker.openbittorrent.com%3A80","udp%3A%2F%2Fopen.demonii.com%3A1337","udp%3A%2F%2Ftracker.coppersurfer.tk%3A6969","udp%3A%2F%2Fexodus.desync.com%3A6969"],"infoHash":"985936784e2981dfc409f11fee3c975f2ccd7ac7","infoHashBuffer":{"type":"Buffer","data":[152,89,54,120,78,41,129,223,196,9,241,31,238,60,151,95,44,205,122,199]},"announce":[],"urlList":[]}}